<?xml version="1.0" encoding="UTF-8"?>
<svg xmlns="http://www.w3.org/2000/svg" version="1.1" viewBox="0 0 900 880">
  <defs>
    <style>
      .cls-1 {
        fill: #fff;
      }
    </style>
  </defs>
  <!-- Generator: Adobe Illustrator 28.7.1, SVG Export Plug-In . SVG Version: 1.2.0 Build 142)  -->
  <g>
    <g id="Layer_1">
      <g>
        <rect class="cls-1" width="900" height="880"/>
        <g>
          <path d="M463.3,466.7c-7.4,0-13.3,6-13.3,13.3v160c0,7.4,6,13.3,13.3,13.3h133.3c7.4,0,13.3-6,13.3-13.3s-6-13.3-13.3-13.3h-120v-146.7c0-7.4-6-13.3-13.3-13.3Z"/>
          <path d="M316.7,560v-160c0-7.4-6-13.3-13.3-13.3h-160c-7.4,0-13.3,6-13.3,13.3s6,13.3,13.3,13.3h146.7v133.3h-146.7c-7.4,0-13.3,6-13.3,13.3v160c0,7.4,6,13.3,13.3,13.3s13.3-6,13.3-13.3v-146.7h53.3v240h-106.7c-14.7,0-26.7-12-26.7-26.7v-293.3h146.7c7.4,0,13.3-6,13.3-13.3s-6-13.3-13.3-13.3H76.7v-133.3h146.7c7.4,0,13.3-6,13.3-13.3s-6-13.3-13.3-13.3h-66.7v-93.3c0-7.4-6-13.3-13.3-13.3s-13.3,6-13.3,13.3v93.3h-53.3V93.3c0-14.7,12-26.7,26.7-26.7h26.7v66.7c0,7.4,6,13.3,13.3,13.3h66.7v93.3c0,7.4,6,13.3,13.3,13.3s13.3-6,13.3-13.3v-106.7c0-7.4-6-13.3-13.3-13.3h-66.7v-53.3h373.3v240h-213.3v-160h133.3v80h-53.3v-13.3c0-7.4-6-13.3-13.3-13.3s-13.3,6-13.3,13.3v26.7c0,7.4,6,13.3,13.3,13.3h80c7.4,0,13.3-6,13.3-13.3v-106.7c0-7.4-6-13.3-13.3-13.3h-160c-7.4,0-13.3,6-13.3,13.3v186.7c0,7.4,6,13.3,13.3,13.3h373.3c7.4,0,13.3-6,13.3-13.3s-6-13.3-13.3-13.3h-120V53.3c0-7.4-6-13.3-13.3-13.3H103.3c-29.4,0-53.3,23.9-53.3,53.3v693.3c0,29.4,23.9,53.3,53.3,53.3h120c7.4,0,13.3-6,13.3-13.3v-253.3h66.7c7.4,0,13.3-6,13.3-13.3Z"/>
          <path d="M623.3,253.3c7.4,0,13.3-6,13.3-13.3v-106.7c0-7.4-6-13.3-13.3-13.3s-13.3,6-13.3,13.3v106.7c0,7.4,6,13.3,13.3,13.3Z"/>
          <path d="M756.7,573.3c7.4,0,13.3-6,13.3-13.3v-160c0-7.4-6-13.3-13.3-13.3h-293.3c-7.4,0-13.3,6-13.3,13.3s6,13.3,13.3,13.3h280v146.7c0,7.4,6,13.3,13.3,13.3Z"/>
          <path d="M396.7,400c0-7.4-6-13.3-13.3-13.3s-13.3,6-13.3,13.3v160c0,7.4,6,13.3,13.3,13.3s13.3-6,13.3-13.3v-160Z"/>
          <path d="M796.7,40h-173.3c-7.4,0-13.3,6-13.3,13.3s6,13.3,13.3,13.3h173.3c14.7,0,26.7,12,26.7,26.7v133.3h-106.7v-80h40c7.4,0,13.3-6,13.3-13.3s-6-13.3-13.3-13.3h-53.3c-7.4,0-13.3,6-13.3,13.3v106.7c0,7.4,6,13.3,13.3,13.3h40v66.7c0,7.4,6,13.3,13.3,13.3s13.3-6,13.3-13.3v-66.7h53.3v373.3h-66.7c-7.4,0-13.3,6-13.3,13.3s6,13.3,13.3,13.3h66.7v53.3h-133.3v-226.7c0-7.4-6-13.3-13.3-13.3h-133.3c-7.4,0-13.3,6-13.3,13.3v80c0,7.4,6,13.3,13.3,13.3h53.3c7.4,0,13.3-6,13.3-13.3s-6-13.3-13.3-13.3h-40v-53.3h106.7v226.7c0,7.4,6,13.3,13.3,13.3h146.7v53.3c0,14.7-12,26.7-26.7,26.7h-480v-80h280c7.4,0,13.3-6,13.3-13.3s-6-13.3-13.3-13.3h-293.3c-7.4,0-13.3,6-13.3,13.3v106.7c0,7.4,6,13.3,13.3,13.3h493.3c29.4,0,53.3-23.9,53.3-53.3V93.3c0-29.4-23.9-53.3-53.3-53.3Z"/>
          <path d="M383.3,626.7h-80c-7.4,0-13.3,6-13.3,13.3s6,13.3,13.3,13.3h80c7.4,0,13.3-6,13.3-13.3s-6-13.3-13.3-13.3Z"/>
        </g>
      </g>
    </g>
  </g>
</svg>