<?xml version="1.0" encoding="UTF-8"?><svg id="a" xmlns="http://www.w3.org/2000/svg" width="2011.34" height="2011.34" viewBox="0 0 2011.34 2011.34"><rect x="5.67" y="5.67" width="2000" height="2000" style="fill:none; stroke:#e6007e; stroke-miterlimit:10; stroke-width:11.34px;"/><line x1="3.41" y1="160.37" x2="231.82" y2="160.37" style="fill:none; stroke:#e6007e; stroke-miterlimit:10; stroke-width:11.34px;"/><line x1="94.77" y1="364.95" x2="209.97" y2="364.95" style="fill:none; stroke:#e6007e; stroke-miterlimit:10; stroke-width:11.34px;"/><line x1="5.39" y1="563.57" x2="219.9" y2="563.57" style="fill:none; stroke:#e6007e; stroke-miterlimit:10; stroke-width:11.34px;"/><line x1="146.41" y1="927.05" x2="146.41" y2="1145.53" style="fill:none; stroke:#e6007e; stroke-miterlimit:10; stroke-width:11.34px;"/><line x1="126.55" y1="750.28" x2="366.88" y2="750.28" style="fill:none; stroke:#e6007e; stroke-miterlimit:10; stroke-width:11.34px;"/><line x1="364.9" y1="386.8" x2="364.9" y2="750.28" style="fill:none; stroke:#e6007e; stroke-miterlimit:10; stroke-width:11.34px;"/><line x1="364.9" y1="263.66" x2="364.9" y2="132.57" style="fill:none; stroke:#e6007e; stroke-miterlimit:10; stroke-width:11.34px;"/><line x1="533.72" y1="82.91" x2="533.72" y2="3.46" style="fill:none; stroke:#e6007e; stroke-miterlimit:10; stroke-width:11.34px;"/><line x1="532.73" y1="260.68" x2="532.73" y2="395.74" style="fill:none; stroke:#e6007e; stroke-miterlimit:10; stroke-width:11.34px;"/><line x1="531.74" y1="555.63" x2="531.74" y2="698.63" style="fill:none; stroke:#e6007e; stroke-miterlimit:10; stroke-width:11.34px;"/><line x1="529.75" y1="905.2" x2="529.75" y2="1161.42" style="fill:none; stroke:#e6007e; stroke-miterlimit:10; stroke-width:11.34px;"/><line x1="519.82" y1="1542.77" x2="519.82" y2="1671.88" style="fill:none; stroke:#e6007e; stroke-miterlimit:10; stroke-width:11.34px;"/><line x1="523.79" y1="1866.52" x2="523.79" y2="2001.59" style="fill:none; stroke:#e6007e; stroke-miterlimit:10; stroke-width:11.34px;"/><line x1="694.61" y1="1836.73" x2="694.61" y2="1481.2" style="fill:none; stroke:#e6007e; stroke-miterlimit:10; stroke-width:11.34px;"/><line x1="869.39" y1="1485.17" x2="702.55" y2="1485.17" style="fill:none; stroke:#e6007e; stroke-miterlimit:10; stroke-width:11.34px;"/><line x1="331.13" y1="1820.84" x2="331.13" y2="1324.29" style="fill:none; stroke:#e6007e; stroke-miterlimit:10; stroke-width:11.34px;"/><line x1="120.59" y1="1320.32" x2="331.13" y2="1320.32" style="fill:none; stroke:#e6007e; stroke-miterlimit:10; stroke-width:11.34px;"/><line x1="341.06" y1="1141.56" x2="341.06" y2="931.02" style="fill:none; stroke:#e6007e; stroke-miterlimit:10; stroke-width:11.34px;"/><line x1="698.58" y1="887.32" x2="698.58" y2="1177.31" style="fill:none; stroke:#e6007e; stroke-miterlimit:10; stroke-width:11.34px;"/><line x1="849.53" y1="1648.04" x2="849.53" y2="1828.79" style="fill:none; stroke:#e6007e; stroke-miterlimit:10; stroke-width:11.34px;"/><line x1="1024.32" y1="1844.68" x2="1024.32" y2="1463.32" style="fill:none; stroke:#e6007e; stroke-miterlimit:10; stroke-width:11.34px;"/><line x1="1169.31" y1="1791.05" x2="1383.82" y2="1791.05" style="fill:none; stroke:#e6007e; stroke-miterlimit:10; stroke-width:11.34px;"/><line x1="1054.11" y1="1282.58" x2="861.45" y2="1282.58" style="fill:none; stroke:#e6007e; stroke-miterlimit:10; stroke-width:11.34px;"/><line x1="861.45" y1="744.32" x2="861.45" y2="1284.57" style="fill:none; stroke:#e6007e; stroke-miterlimit:10; stroke-width:11.34px;"/><line x1="698.58" y1="698.63" x2="698.58" y2="549.67" style="fill:none; stroke:#e6007e; stroke-miterlimit:10; stroke-width:11.34px;"/><line x1="865.42" y1="555.63" x2="698.58" y2="555.63" style="fill:none; stroke:#e6007e; stroke-miterlimit:10; stroke-width:11.34px;"/><line x1="861.45" y1="315.3" x2="861.45" y2="555.63" style="fill:none; stroke:#e6007e; stroke-miterlimit:10; stroke-width:11.34px;"/><line x1="1028.29" y1="321.26" x2="1028.29" y2="452.35" style="fill:none; stroke:#e6007e; stroke-miterlimit:10; stroke-width:11.34px;"/><line x1="1022.33" y1="593.37" x2="1022.33" y2="772.12" style="fill:none; stroke:#e6007e; stroke-miterlimit:10; stroke-width:11.34px;"/><line x1="706.52" y1="368.92" x2="706.52" y2="138.52" style="fill:none; stroke:#e6007e; stroke-miterlimit:10; stroke-width:11.34px;"/><line x1="1199.1" y1="140.51" x2="706.52" y2="140.51" style="fill:none; stroke:#e6007e; stroke-miterlimit:10; stroke-width:11.34px;"/><line x1="1197.12" y1="7.43" x2="1197.12" y2="905.2" style="fill:none; stroke:#e6007e; stroke-miterlimit:10; stroke-width:11.34px;"/><line x1="1336.15" y1="299.41" x2="1203.08" y2="299.41" style="fill:none; stroke:#e6007e; stroke-miterlimit:10; stroke-width:11.34px;"/><line x1="1526.83" y1="621.17" x2="1201.09" y2="621.17" style="fill:none; stroke:#e6007e; stroke-miterlimit:10; stroke-width:11.34px;"/><line x1="1499.02" y1="454.33" x2="1499.02" y2="317.28" style="fill:none; stroke:#e6007e; stroke-miterlimit:10; stroke-width:11.34px;"/><line x1="1709.56" y1="317.28" x2="1499.02" y2="317.28" style="fill:none; stroke:#e6007e; stroke-miterlimit:10; stroke-width:11.34px;"/><line x1="1699.63" y1="885.34" x2="1699.63" y2="317.28" style="fill:none; stroke:#e6007e; stroke-miterlimit:10; stroke-width:11.34px;"/><line x1="1709.56" y1="96.81" x2="1709.56" y2="13.39" style="fill:none; stroke:#e6007e; stroke-miterlimit:10; stroke-width:11.34px;"/><line x1="1874.41" y1="498.03" x2="1874.41" y2="285.5" style="fill:none; stroke:#e6007e; stroke-miterlimit:10; stroke-width:11.34px;"/><line x1="1882.36" y1="100.79" x2="1882.36" y2="11.41" style="fill:none; stroke:#e6007e; stroke-miterlimit:10; stroke-width:11.34px;"/><line x1="1896.26" y1="676.79" x2="1896.26" y2="1145.53" style="fill:none; stroke:#e6007e; stroke-miterlimit:10; stroke-width:11.34px;"/><line x1="2005.5" y1="1141.56" x2="1896.26" y2="1141.56" style="fill:none; stroke:#e6007e; stroke-miterlimit:10; stroke-width:11.34px;"/><line x1="1524.84" y1="764.18" x2="1524.84" y2="1211.08" style="fill:none; stroke:#e6007e; stroke-miterlimit:10; stroke-width:11.34px;"/><line x1="1330.19" y1="1002.52" x2="1524.84" y2="1002.52" style="fill:none; stroke:#e6007e; stroke-miterlimit:10; stroke-width:11.34px;"/><line x1="1365.95" y1="1157.45" x2="1365.95" y2="1379.9" style="fill:none; stroke:#e6007e; stroke-miterlimit:10; stroke-width:11.34px;"/><line x1="1526.83" y1="1377.92" x2="1365.95" y2="1377.92" style="fill:none; stroke:#e6007e; stroke-miterlimit:10; stroke-width:11.34px;"/><line x1="1524.84" y1="1824.81" x2="1524.84" y2="1383.88" style="fill:none; stroke:#e6007e; stroke-miterlimit:10; stroke-width:11.34px;"/><line x1="1693.67" y1="1824.81" x2="1693.67" y2="1699.68" style="fill:none; stroke:#e6007e; stroke-miterlimit:10; stroke-width:11.34px;"/><line x1="1697.64" y1="1552.7" x2="1697.64" y2="1040.26" style="fill:none; stroke:#e6007e; stroke-miterlimit:10; stroke-width:11.34px;"/><line x1="1024.32" y1="1113.75" x2="1024.32" y2="929.03" style="fill:none; stroke:#e6007e; stroke-miterlimit:10; stroke-width:11.34px;"/><line x1="1193.15" y1="1083.96" x2="1193.15" y2="1449.42" style="fill:none; stroke:#e6007e; stroke-miterlimit:10; stroke-width:11.34px;"/><circle cx="626.58" cy="376.37" r="60.08" style="fill:#2de500;"/><circle cx="449.81" cy="376.37" r="60.08" style="fill:#2de500;"/><circle cx="118.11" cy="84.4" r="60.08" style="fill:#2de500;"/><circle cx="1305.86" cy="114.19" r="60.08" style="fill:#2de500;"/><circle cx="1589.89" cy="128.1" r="60.08" style="fill:#2de500;"/><circle cx="1794.47" cy="116.18" r="60.08" style="fill:#2de500;"/><circle cx="1937.48" cy="263.16" r="60.08" style="fill:#2de500;"/><circle cx="1599.82" cy="479.66" r="60.08" style="fill:#2de500;"/><circle cx="1287.99" cy="511.43" r="60.08" style="fill:#2de500;"/><circle cx="1607.77" cy="876.9" r="60.08" style="fill:#2de500;"/><circle cx="1287.99" cy="741.83" r="60.08" style="fill:#2de500;"/><circle cx="1421.06" cy="914.63" r="60.08" style="fill:#2de500;"/><circle cx="1113.2" cy="296.92" r="60.08" style="fill:#2de500;"/><circle cx="946.36" cy="698.14" r="60.08" style="fill:#2de500;"/><circle cx="797.39" cy="698.14" r="60.08" style="fill:#2de500;"/><circle cx="622.61" cy="628.62" r="60.08" style="fill:#2de500;"/><circle cx="455.77" cy="880.87" r="60.08" style="fill:#2de500;"/><circle cx="76.4" cy="1073.53" r="60.08" style="fill:#2de500;"/><circle cx="259.13" cy="1470.77" r="60.08" style="fill:#2de500;"/><circle cx="84.35" cy="1619.74" r="60.08" style="fill:#2de500;"/><circle cx="245.23" cy="1782.61" r="60.08" style="fill:#2de500;"/><circle cx="437.89" cy="1669.39" r="60.08" style="fill:#2de500;"/><circle cx="433.92" cy="1258.25" r="60.08" style="fill:#2de500;"/><circle cx="622.61" cy="1041.75" r="60.08" style="fill:#2de500;"/><circle cx="614.66" cy="1415.16" r="60.08" style="fill:#2de500;"/><circle cx="791.43" cy="1397.28" r="60.08" style="fill:#2de500;"/><circle cx="932.46" cy="1774.66" r="60.08" style="fill:#2de500;"/><circle cx="618.63" cy="1901.78" r="60.08" style="fill:#2de500;"/><circle cx="1109.23" cy="1037.78" r="60.08" style="fill:#2de500;"/><circle cx="1276.07" cy="1399.27" r="60.08" style="fill:#2de500;"/><circle cx="1109.23" cy="1530.36" r="60.08" style="fill:#2de500;"/><circle cx="1262.17" cy="1697.2" r="60.08" style="fill:#2de500;"/><circle cx="1268.12" cy="1923.63" r="60.08" style="fill:#2de500;"/><circle cx="1746.8" cy="1927.6" r="60.08" style="fill:#2de500;"/><circle cx="1609.75" cy="1494.61" r="60.08" style="fill:#2de500;"/><circle cx="1790.5" cy="1520.43" r="60.08" style="fill:#2de500;"/><circle cx="1925.56" cy="1651.52" r="60.08" style="fill:#2de500;"/><circle cx="1929.53" cy="1303.93" r="60.08" style="fill:#2de500;"/><circle cx="1794.47" cy="797.45" r="60.08" style="fill:#2de500;"/><circle cx="290.91" cy="376.37" r="60.08" style="fill:#2de500;"/></svg>