<?xml version="1.0" encoding="UTF-8"?>
<svg xmlns="http://www.w3.org/2000/svg" version="1.1" xmlns:xlink="http://www.w3.org/1999/xlink" viewBox="0 0 2007.4 2003.5">
  <defs>
    <style>
      .cls-1, .cls-2 {
        stroke: #001be0;
        stroke-width: 14.2px;
      }

      .cls-1, .cls-2, .cls-3 {
        fill: none;
        stroke-miterlimit: 10;
      }

      .cls-1, .cls-4, .cls-3, .cls-5 {
        display: none;
      }

      .cls-4 {
        fill: #e2e200;
      }

      .cls-3 {
        stroke: #e6007e;
        stroke-width: 11.3px;
      }

      .cls-5 {
        fill: #2de500;
      }
    </style>
  </defs>
  <!-- Generator: Adobe Illustrator 28.7.1, SVG Export Plug-In . SVG Version: 1.2.0 Build 142)  -->
  <g>
    <g id="Calque_1">
      <image width="2000" height="2000" transform="translate(4.5 4.6)" xlink:href="FOYSXALLAGSPZQU.webp"/>
      <rect class="cls-3" x="4.5" y="4.6" width="2000" height="2000"/>
      <line class="cls-3" x1="2.2" y1="159.3" x2="230.6" y2="159.3"/>
      <line class="cls-3" x1="93.6" y1="363.8" x2="208.8" y2="363.8"/>
      <line class="cls-3" x1="4.2" y1="562.5" x2="218.7" y2="562.5"/>
      <line class="cls-3" x1="145.2" y1="925.9" x2="145.2" y2="1144.4"/>
      <line class="cls-3" x1="125.4" y1="749.2" x2="365.7" y2="749.2"/>
      <line class="cls-3" x1="363.7" y1="385.7" x2="363.7" y2="749.2"/>
      <line class="cls-3" x1="363.7" y1="262.5" x2="363.7" y2="131.4"/>
      <line class="cls-3" x1="532.6" y1="81.8" x2="532.6" y2="2.3"/>
      <line class="cls-3" x1="531.6" y1="259.6" x2="531.6" y2="394.6"/>
      <line class="cls-3" x1="530.6" y1="554.5" x2="530.6" y2="697.5"/>
      <line class="cls-3" x1="528.6" y1="904.1" x2="528.6" y2="1160.3"/>
      <line class="cls-3" x1="518.6" y1="1541.7" x2="518.6" y2="1670.8"/>
      <line class="cls-3" x1="522.6" y1="1865.4" x2="522.6" y2="2000.5"/>
      <line class="cls-3" x1="693.4" y1="1835.6" x2="693.4" y2="1480.1"/>
      <line class="cls-3" x1="868.2" y1="1484.1" x2="701.4" y2="1484.1"/>
      <line class="cls-3" x1="330" y1="1819.7" x2="330" y2="1323.2"/>
      <line class="cls-3" x1="119.4" y1="1319.2" x2="330" y2="1319.2"/>
      <line class="cls-3" x1="339.9" y1="1140.4" x2="339.9" y2="929.9"/>
      <line class="cls-3" x1="697.4" y1="886.2" x2="697.4" y2="1176.2"/>
      <line class="cls-3" x1="848.4" y1="1646.9" x2="848.4" y2="1827.7"/>
      <line class="cls-3" x1="1023.1" y1="1843.6" x2="1023.1" y2="1462.2"/>
      <line class="cls-3" x1="1168.1" y1="1789.9" x2="1382.6" y2="1789.9"/>
      <line class="cls-3" x1="1052.9" y1="1281.5" x2="860.3" y2="1281.5"/>
      <line class="cls-3" x1="860.3" y1="743.2" x2="860.3" y2="1283.4"/>
      <line class="cls-3" x1="697.4" y1="697.5" x2="697.4" y2="548.6"/>
      <line class="cls-3" x1="864.2" y1="554.5" x2="697.4" y2="554.5"/>
      <line class="cls-3" x1="860.3" y1="314.2" x2="860.3" y2="554.5"/>
      <line class="cls-3" x1="1027.1" y1="320.1" x2="1027.1" y2="451.2"/>
      <line class="cls-3" x1="1021.2" y1="592.2" x2="1021.2" y2="771"/>
      <line class="cls-3" x1="705.4" y1="367.8" x2="705.4" y2="137.4"/>
      <line class="cls-3" x1="1197.9" y1="139.4" x2="705.4" y2="139.4"/>
      <line class="cls-3" x1="1195.9" y1="6.3" x2="1195.9" y2="904.1"/>
      <line class="cls-3" x1="1335" y1="298.3" x2="1201.9" y2="298.3"/>
      <line class="cls-3" x1="1525.7" y1="620.1" x2="1199.9" y2="620.1"/>
      <line class="cls-3" x1="1497.8" y1="453.2" x2="1497.8" y2="316.2"/>
      <line class="cls-3" x1="1708.4" y1="316.2" x2="1497.8" y2="316.2"/>
      <line class="cls-3" x1="1698.5" y1="884.2" x2="1698.5" y2="316.2"/>
      <line class="cls-3" x1="1708.4" y1="95.7" x2="1708.4" y2="12.3"/>
      <line class="cls-3" x1="1855.3" y1="496.9" x2="1855.3" y2="284.4"/>
      <line class="cls-3" x1="1863.3" y1="99.7" x2="1863.3" y2="10.3"/>
      <line class="cls-3" x1="1877.2" y1="675.7" x2="1877.2" y2="1144.4"/>
      <line class="cls-3" x1="2004.3" y1="1140.4" x2="1877.2" y2="1140.4"/>
      <line class="cls-3" x1="1523.7" y1="763.1" x2="1523.7" y2="1210"/>
      <line class="cls-3" x1="1329" y1="1001.4" x2="1523.7" y2="1001.4"/>
      <line class="cls-3" x1="1364.8" y1="1156.3" x2="1364.8" y2="1378.8"/>
      <line class="cls-3" x1="1525.7" y1="1376.8" x2="1364.8" y2="1376.8"/>
      <line class="cls-3" x1="1523.7" y1="1823.7" x2="1523.7" y2="1382.8"/>
      <line class="cls-3" x1="1692.5" y1="1823.7" x2="1692.5" y2="1698.6"/>
      <line class="cls-3" x1="1696.5" y1="1551.6" x2="1696.5" y2="1039.1"/>
      <line class="cls-3" x1="1023.1" y1="1112.6" x2="1023.1" y2="927.9"/>
      <line class="cls-3" x1="1192" y1="1082.8" x2="1192" y2="1448.3"/>
      <circle class="cls-5" cx="625.4" cy="375.3" r="60.1"/>
      <circle class="cls-5" cx="448.6" cy="375.3" r="60.1"/>
      <circle class="cls-5" cx="116.9" cy="83.3" r="60.1"/>
      <circle class="cls-5" cx="1304.7" cy="113.1" r="60.1"/>
      <circle class="cls-4" cx="1120" cy="73.4" r="60.1"/>
      <circle class="cls-4" cx="1939" cy="1069.2" r="60.1"/>
      <circle class="cls-5" cx="1588.7" cy="127" r="60.1"/>
      <circle class="cls-5" cx="1793.3" cy="115.1" r="60.1"/>
      <circle class="cls-5" cx="1936.3" cy="262" r="60.1"/>
      <circle class="cls-5" cx="1598.6" cy="478.5" r="60.1"/>
      <circle class="cls-5" cx="1286.8" cy="510.3" r="60.1"/>
      <circle class="cls-5" cx="1606.6" cy="875.8" r="60.1"/>
      <circle class="cls-5" cx="1286.8" cy="740.7" r="60.1"/>
      <circle class="cls-5" cx="1419.9" cy="913.5" r="60.1"/>
      <circle class="cls-5" cx="1112" cy="295.8" r="60.1"/>
      <circle class="cls-5" cx="945.2" cy="697" r="60.1"/>
      <circle class="cls-5" cx="796.2" cy="697" r="60.1"/>
      <circle class="cls-5" cx="621.4" cy="627.5" r="60.1"/>
      <circle class="cls-5" cx="454.6" cy="879.8" r="60.1"/>
      <circle class="cls-5" cx="75.2" cy="1072.4" r="60.1"/>
      <circle class="cls-5" cx="258" cy="1469.7" r="60.1"/>
      <circle class="cls-5" cx="83.2" cy="1618.6" r="60.1"/>
      <circle class="cls-5" cx="244.1" cy="1781.5" r="60.1"/>
      <circle class="cls-5" cx="436.7" cy="1668.3" r="60.1"/>
      <circle class="cls-5" cx="432.7" cy="1257.1" r="60.1"/>
      <circle class="cls-5" cx="621.4" cy="1040.6" r="60.1"/>
      <circle class="cls-5" cx="613.5" cy="1414" r="60.1"/>
      <circle class="cls-5" cx="790.3" cy="1396.2" r="60.1"/>
      <circle class="cls-5" cx="931.3" cy="1773.5" r="60.1"/>
      <circle class="cls-5" cx="617.5" cy="1900.7" r="60.1"/>
      <circle class="cls-5" cx="1108.1" cy="1036.7" r="60.1"/>
      <circle class="cls-5" cx="1274.9" cy="1398.2" r="60.1"/>
      <circle class="cls-5" cx="1108.1" cy="1529.2" r="60.1"/>
      <circle class="cls-5" cx="1261" cy="1696.1" r="60.1"/>
      <circle class="cls-5" cx="1267" cy="1922.5" r="60.1"/>
      <circle class="cls-5" cx="1745.6" cy="1926.5" r="60.1"/>
      <circle class="cls-5" cx="1608.6" cy="1493.5" r="60.1"/>
      <circle class="cls-5" cx="1789.3" cy="1519.3" r="60.1"/>
      <circle class="cls-5" cx="1924.4" cy="1650.4" r="60.1"/>
      <circle class="cls-5" cx="1928.4" cy="1302.8" r="60.1"/>
      <circle class="cls-5" cx="1793.3" cy="796.3" r="60.1"/>
      <circle class="cls-5" cx="289.7" cy="375.3" r="60.1"/>
      <path class="cls-1" d="M1043.3,82s-337.7-2-377.4,4c-59.6,38.7-48.7,98.3-57.6,133.1-27.8,24.8-48.7,19.9-85.4,19.9s-27.8,7.9-59.6-13.9c-19.9-54.6,3-56.6-11.9-105.3-50.6-44.7-118.2-27.8-143-7.9-29.8,48.7-18.9,66.5-21.8,95.3-7.9,43.7-33.8,78.5-71.5,83.4s-75.5,8.9-91.4,9.9-51.6,11.9-51.6,51.6c-3,39.7-4,88.4,6,113.2s15.9,32.8,35.8,41.7,82.4,0,117.2,2,51.6,24.8,55.6,47.7,3,79.4,0,95.3,0,41.7-55.6,39.7h-103.3c-55.6-4-69.5,43.7-71.5,75.5s2,120.2,51.6,119.2c52.6,5,46.7,7.9,73.5,9.9,81.4,5,61.6,26.8,65.5,71.5s6,181.7,2,224.4-29.8,58.6-61.6,63.6-42.7,0-77.5,2-44.7,28.8-53.6,49.7-14.9,67.5,11.9,119.2c27.8,60.6,59.6,91.4,85.4,127.1s31.8,45.7,29.8,79.4-13.9,50.6-35.8,85.4-66.5,72.5-95.3,109.2-4,71.5,9.9,87.4,295.9,19.9,315.8,15.9,52.6-36.7,53.6-53.6,2-65.5,19.9-79.4,71.5-2,91.4-4,82.4-47.7,67.5-139c-19.9-91.4-47.7-125.1-69.5-147s-68.5-92.4-47.7-147,96.3-83.4,131.1-85.4,80.4,6,105.3,7.9c52.6-2,46.7-51.6,47.7-93.4s3-232.4,4-258.2c4-58.6-42.7-76.5-75.5-85.4-89.4-23.8-109.2-15.9-210.5-77.5-73.5-42.7-61.6-127.1-59.6-156.9s36.7-111.2,125.1-107.3c97.3,3,143-1,166.8-2s63.6-10.9,61.6-77.5,3-99.3,6-111.2,15.9-31.8,49.7-31.8,40.7-4,51.6-2,36.7,21.8,39.7,61.6-4,100.3,0,127.1,23.8,92.4,71.5,97.3,86.4-55.6,91.4,89.4c-2,50.6-3,134.1-4,162.9s-3,44.7-49.7,49.7-108.2-4-111.2,89.4,0,180.7,2,208.6,18.9,43.7,91.4,51.6c34.8,6,69.5-10.9,71.5,65.5s3,101.3-65.5,107.3-97.3,25.8-99.3,67.5-4,77.5-4,99.3-17.9,48.7-51.6,45.7-102.3-31.8-109.2,53.6,1,201.6,0,222.5-1,51.6,79.4,59.6,147-7,178.8-6,63.6-22.8,83.4-145,59.6-250.3,149-252.2,123.1,111.2,137,172.8,16.9,110.2,21.8,137,5,88.4,89.4,91.4,97.3-29.8,97.3-95.3,4-118.2,7.9-133.1,6-45.7,81.4-49.7,172.8-43.7,174.8-115.2-42.7-127.1-57.6-154.9-36.7-50.6-33.8-143-3-194.6-4-208.6-18.9-58.6-75.5-55.6-80.4,40.7-87.4,95.3-7,152.9-7.9,172.8-3,51.6-47.7,55.6-75.5,4-91.4-4-21.8-34.8-21.8-81.4,3-103.3-67.5-103.3-114.2,4-115.2-43.7,14.9-188.7,101.3-270.1c99.3-75.5,127.1-51.6,168.8-91.4s54.6-20.9,47.7-75.5-41.7-60.6-87.4-85.4-83.4-66.5-83.4-192.7,49.7-95.3,81.4-97.3,216.5,8.9,234.4,9.9,53.6-7,49.7,65.5-3,205.6-2,224.4,3,64.6,43.7,71.5,88.4-14.9,109.2,15.9,20.9,50.6,15.9,347.6"/>
      <polyline class="cls-2" points="1043.3 78.1 642 78.1 642 199.2 459.3 199.2 459.3 74.1 288.5 74.1 288.5 274.7 58.1 274.7 58.1 487.2 270.6 487.2 270.6 685.8 81.9 685.8 81.9 878.5 240.8 878.5 240.8 1244 60.1 1244 60.1 1426.7 253.7 1620.4 62.1 1812 62.1 1917.3 411.6 1917.3 439.4 1917.3 439.4 1800.1 592.4 1800.1 592.4 1567.7 442.4 1417.8 581.5 1278.7 765.2 1278.7 765.2 860.6 765.2 824.9 544.7 824.9 448.4 728.6 448.4 511.1 448.4 487.2 781.1 487.2 781.1 274.7 942 274.7 942 542.8 1104.8 542.8 1104.8 862.6 932 862.6 932 1200.3 1112.8 1200.3 1112.8 1400.9 951.9 1400.9 951.9 1577.7 765.2 1577.7 765.2 1923.3 1110.8 1923.3 1110.8 1688.9 1260.7 1538.9 1440.5 1718.7 1440.5 1925.2 1605.4 1925.2 1605.4 1647.2 1784.1 1647.2 1912.2 1519.1 1794 1400.9 1794 981.8 1611.3 981.8 1611.3 1295.6 1440.5 1295.6 1440.5 1112.9 1261.7 1112.9 1261.7 910.3 1453.4 718.6 1593.4 718.6 1593.4 628.2 1511 545.8 1414.7 545.8 1414.7 262.8 1770.2 262.8 1770.2 624.3 1939 624.3 1939 991.7"/>
    </g>
  </g>
</svg>